<svg xmlns="http://www.w3.org/2000/svg" width="1600" height="1040" viewBox="0 0 1600 1040">
<rect width="1600" height="1040" fill="#fff"/>
<rect width="1600" height="94" fill="#F7F8F9"/>
<text x="56" y="52" font-family="Arial, sans-serif" font-size="36" font-weight="700" fill="#1F2937">DFD 09 - Builder dApp and Plugin Ecosystem</text>
<text x="56" y="78" font-family="Arial, sans-serif" font-size="20" fill="#5F657D">dApps and plugins expand the platform after the core liquidity loop is proven.</text>
<text x="1355" y="54" font-family="Arial, sans-serif" font-size="14" font-weight="700" fill="#0059FF">GlemO RWA V4.7</text>
<rect x="70" y="175" width="410" height="175" rx="16" fill="#FFFFFF" stroke="#D9E0E7" stroke-width="2"/>
<rect x="70" y="175" width="8" height="175" fill="#0059FF"/>
<text x="94" y="213" font-family="Arial, sans-serif" font-size="18" font-weight="700" fill="#1F2937">1. Builder onboarding</text>
<text x="94" y="243" font-family="Arial, sans-serif" font-size="14" fill="#5F657D">Developer identity, entity profile, wallet</text>
<text x="94" y="263" font-family="Arial, sans-serif" font-size="14" fill="#5F657D">and payout data</text>
<rect x="565" y="175" width="410" height="175" rx="16" fill="#FFFFFF" stroke="#D9E0E7" stroke-width="2"/>
<rect x="565" y="175" width="8" height="175" fill="#F15C00"/>
<text x="589" y="213" font-family="Arial, sans-serif" font-size="18" font-weight="700" fill="#1F2937">2. Sandbox access</text>
<text x="589" y="243" font-family="Arial, sans-serif" font-size="14" fill="#5F657D">API keys, documentation, sample data and</text>
<text x="589" y="263" font-family="Arial, sans-serif" font-size="14" fill="#5F657D">permissions</text>
<rect x="1060" y="175" width="410" height="175" rx="16" fill="#FFFFFF" stroke="#D9E0E7" stroke-width="2"/>
<rect x="1060" y="175" width="8" height="175" fill="#0059FF"/>
<text x="1084" y="213" font-family="Arial, sans-serif" font-size="18" font-weight="700" fill="#1F2937">3. Module submission</text>
<text x="1084" y="243" font-family="Arial, sans-serif" font-size="14" fill="#5F657D">CRM, compliance monitor, market x ray</text>
<text x="1084" y="263" font-family="Arial, sans-serif" font-size="14" fill="#5F657D">agent or extension</text>
<rect x="70" y="535" width="410" height="175" rx="16" fill="#FFFFFF" stroke="#D9E0E7" stroke-width="2"/>
<rect x="70" y="535" width="8" height="175" fill="#F15C00"/>
<text x="94" y="573" font-family="Arial, sans-serif" font-size="18" font-weight="700" fill="#1F2937">4. Review gate</text>
<text x="94" y="603" font-family="Arial, sans-serif" font-size="14" fill="#5F657D">Security, scope, data permission and</text>
<text x="94" y="623" font-family="Arial, sans-serif" font-size="14" fill="#5F657D">commercial review</text>
<rect x="565" y="535" width="410" height="175" rx="16" fill="#FFFFFF" stroke="#D9E0E7" stroke-width="2"/>
<rect x="565" y="535" width="8" height="175" fill="#0059FF"/>
<text x="589" y="573" font-family="Arial, sans-serif" font-size="18" font-weight="700" fill="#1F2937">5. Marketplace listing</text>
<text x="589" y="603" font-family="Arial, sans-serif" font-size="14" fill="#5F657D">Company users subscribe or bundle with</text>
<text x="589" y="623" font-family="Arial, sans-serif" font-size="14" fill="#5F657D">Enterprise AI</text>
<rect x="1060" y="535" width="410" height="175" rx="16" fill="#FFFFFF" stroke="#D9E0E7" stroke-width="2"/>
<rect x="1060" y="535" width="8" height="175" fill="#F15C00"/>
<text x="1084" y="573" font-family="Arial, sans-serif" font-size="18" font-weight="700" fill="#1F2937">6. Revenue and token incentives</text>
<text x="1084" y="603" font-family="Arial, sans-serif" font-size="14" fill="#5F657D">Usage, revenue share and verified</text>
<text x="1084" y="623" font-family="Arial, sans-serif" font-size="14" fill="#5F657D">contribution rewards</text>
<rect x="120" y="865" width="245" height="60" rx="12" fill="#FFF4EC" stroke="#F3CFAE" stroke-width="2"/>
<text x="136" y="901" font-family="Arial, sans-serif" font-size="15" font-weight="700" fill="#1F2937">Builder profile</text>
<rect x="405" y="865" width="245" height="60" rx="12" fill="#FFF4EC" stroke="#F3CFAE" stroke-width="2"/>
<text x="421" y="901" font-family="Arial, sans-serif" font-size="15" font-weight="700" fill="#1F2937">API keys</text>
<rect x="690" y="865" width="245" height="60" rx="12" fill="#FFF4EC" stroke="#F3CFAE" stroke-width="2"/>
<text x="706" y="901" font-family="Arial, sans-serif" font-size="15" font-weight="700" fill="#1F2937">Plugin review</text>
<rect x="975" y="865" width="245" height="60" rx="12" fill="#FFF4EC" stroke="#F3CFAE" stroke-width="2"/>
<text x="991" y="901" font-family="Arial, sans-serif" font-size="15" font-weight="700" fill="#1F2937">Module catalogue</text>
<rect x="1260" y="865" width="245" height="60" rx="12" fill="#FFF4EC" stroke="#F3CFAE" stroke-width="2"/>
<text x="1276" y="901" font-family="Arial, sans-serif" font-size="15" font-weight="700" fill="#1F2937">Payout ledger</text>
</svg>